# Blender v2.78 (sub 0) OBJ File: 'cubev1.blend'
# www.blender.org
mtllib cubev2.mtl
o Plane
v -1.000000 -1.008563 1.004347
v 1.000000 -1.008563 1.004347
v -1.000000 0.991437 -0.002105
v -1.000000 0.991437 -0.354432
v -1.000000 -1.008563 -0.354432
v -1.000000 -1.008563 -0.002105
v 1.000000 -1.008563 -0.005775
v 1.000000 -1.008563 -0.357453
v -1.000000 -0.701627 -0.354432
v -1.000000 -0.701627 -0.002105
v 1.000000 -0.701627 -0.005775
v 1.000000 -0.701627 -0.357453
v 1.000000 0.991437 1.004347
v -1.000000 0.991437 1.004347
v 1.000000 0.991437 -0.005775
v 1.000000 0.991437 -0.357453
v -1.000000 -1.008563 -0.995653
v -1.000000 0.991437 -0.995653
v 1.000000 -1.008563 -0.995653
v 1.000000 0.991437 -0.995653
v -1.000000 0.991437 -0.995653
v -0.197038 -0.785802 1.004347
v 0.122000 -0.785802 1.004347
v -0.197038 -1.008563 0.782210
v 0.122000 -1.008563 0.782210
v -0.197038 -1.008563 1.004347
v 0.122000 -1.008563 1.004347
v -0.998902 -0.785802 -0.804831
v -0.998902 -0.785802 -0.485793
v -0.776765 -1.008563 -0.804831
v -0.776765 -1.008563 -0.485793
v -0.998902 -1.008563 -0.804831
v -0.998902 -1.008563 -0.485793
v -0.988780 -0.176126 0.778421
v -0.988780 0.142912 0.778421
v -0.766643 -0.176126 1.001181
v -0.766643 0.142912 1.001181
v -0.988780 0.142912 1.001181
v 1.001075 -0.785802 0.545677
v 1.001075 -0.785802 0.226639
v 0.778937 -1.008563 0.545677
v 0.778937 -1.008563 0.226639
v 1.001075 -1.008563 0.545677
v 1.001075 -1.008563 0.226639
v -1.005774 -1.014336 1.010121
v 1.005774 -1.014336 1.010121
v -1.010000 0.991437 -0.002105
v -1.010000 0.991437 -0.354432
v -1.005769 -1.014335 -0.348654
v -1.005778 -1.014337 -0.007873
v 1.005769 -1.014335 -0.011554
v 1.005777 -1.014337 -0.351685
v -1.005766 -0.707407 -0.348658
v -1.005783 -0.707392 -0.007877
v 1.005764 -0.707408 -0.011549
v 1.005781 -0.707394 -0.351681
v 1.005774 0.997211 1.010121
v -1.005774 0.997211 1.010121
v 1.010000 0.991437 -0.005775
v 1.010000 0.991437 -0.357453
v -1.005774 -1.014336 -1.001426
v -1.000000 0.991437 -1.005653
v 1.005774 -1.014336 -1.001426
v 1.005774 0.997211 -1.001426
v -1.007071 0.998508 -0.995653
v -0.192573 -0.792120 1.010683
v 0.117534 -0.792120 1.010683
v -0.192560 -1.014876 0.788541
v 0.117521 -1.014876 0.788541
v -0.187038 -1.008563 1.004347
v 0.112000 -1.008563 1.004347
v -1.005237 -0.792120 -0.800365
v -1.005237 -0.792120 -0.490258
v -0.783096 -1.014876 -0.800352
v -0.783096 -1.014876 -0.490271
v -0.998902 -1.008563 -0.794831
v -0.998902 -1.008563 -0.495793
v -0.995861 -0.176126 0.785482
v -0.995116 0.138446 0.784738
v -0.773724 -0.176126 1.008242
v -0.772974 0.138433 1.007494
v -0.988780 0.132912 1.001181
v 1.007410 -0.792120 0.541212
v 1.007410 -0.792120 0.231105
v 0.785268 -1.014876 0.541199
v 0.785268 -1.014876 0.231118
v 1.001075 -1.008563 0.535677
v 1.001075 -1.008563 0.236639
vn 0.0000 1.0000 0.0000
vn 0.0018 0.0000 1.0000
vn -0.0015 0.0000 -1.0000
vn 1.0000 0.0000 0.0000
vn -1.0000 0.0000 0.0000
vn 0.0000 0.0000 1.0000
vn 0.0000 0.0000 -1.0000
vn 0.0000 -1.0000 0.0000
vn 0.0000 0.7061 -0.7081
vn 0.7081 0.7061 0.0000
vn 0.7081 -0.0000 -0.7061
vn -0.7081 0.7061 0.0000
vn -0.0018 -0.0000 -1.0000
vn 0.0015 -0.0000 1.0000
vn -1.0000 -0.0025 -0.0000
vn -1.0000 -0.0014 -0.0023
vn 1.0000 -0.0025 0.0000
vn 1.0000 -0.0011 0.0021
vn 1.0000 -0.0011 -0.0033
vn 0.0011 -0.0011 -1.0000
vn -1.0000 -0.0011 0.0021
vn 0.0003 1.0000 0.0003
vn 0.0000 -0.7061 0.7081
vn -0.7081 -0.7061 0.0000
vn -0.7081 0.0034 0.7061
vn 0.7081 -0.7061 0.0000
vn 0.0263 -0.9993 -0.0263
vn -0.9993 0.0263 -0.0263
vn 0.9993 0.0263 -0.0263
vn -0.0263 0.0263 -0.9993
vn 0.0263 0.0263 0.9993
vn 0.0263 0.0263 -0.9993
vn -0.0263 0.0263 0.9993
vn -0.3433 -0.0020 -0.9392
vn 0.3433 -0.0020 0.9392
vn 0.7078 0.0000 0.7065
vn -0.7065 -0.0000 0.7078
vn -0.7076 0.0000 -0.7066
vn 0.7066 -0.0000 -0.7077
vn 0.3428 0.0017 -0.9394
vn -0.3426 0.9395 -0.0034
vn 0.3429 -0.0020 -0.9394
vn -0.3428 0.0017 0.9394
vn -0.3435 0.0017 -0.9391
vn 0.3435 0.0017 0.9392
vn -0.9393 0.0017 0.3432
vn 0.4101 0.0014 -0.9120
vn 0.3827 0.9239 0.0060
vn -0.3428 -0.0020 0.9394
vn 0.3426 0.9395 -0.0034
vn -0.3420 0.9397 0.0054
vn -0.0017 0.9393 0.3432
vn -0.7071 -0.7071 0.0000
vn 0.7071 -0.7071 0.0000
vn -0.0014 -0.4101 -0.9120
vn 0.0000 0.7081 0.7061
vn 0.0000 -0.7081 -0.7061
vn 0.4078 -0.0183 0.9129
vn -0.4078 -0.0183 0.9129
vn 0.4064 -0.9135 0.0183
vn -0.4064 -0.9135 0.0183
vn -0.7061 0.7081 0.0000
vn 0.7061 -0.7081 0.0000
vn -0.9129 -0.0183 0.4078
vn -0.9129 -0.0183 -0.4078
vn -0.0183 -0.9135 0.4064
vn -0.0183 -0.9135 -0.4064
vn -0.7061 -0.0000 -0.7081
vn 0.7061 0.0000 0.7081
vn -0.9129 0.4078 0.0183
vn -0.0183 0.4063 0.9135
vn 0.7061 0.7081 0.0000
vn -0.7061 -0.7081 0.0000
vn 0.9129 -0.0183 -0.4078
vn 0.9129 -0.0183 0.4078
vn 0.0183 -0.9135 -0.4064
vn 0.0183 -0.9135 0.4064
usemtl Material.001
s off
f 1//1 2//1 7//1 6//1
f 6//2 7//2 11//2 10//2
f 5//1 8//1 19//1 17//1
f 10//1 11//1 12//1 9//1
f 8//3 5//3 9//3 12//3
f 10//4 9//4 4//4 3//4
f 5//4 17//4 21//4 4//4
f 16//5 12//5 11//5 15//5
f 7//5 2//5 13//5 15//5
f 19//5 8//5 16//5 20//5
f 19//6 20//6 18//6 17//6
f 1//4 6//4 3//4 14//4
f 2//7 1//7 14//7 13//7
f 14//8 21//8 20//8 13//8
f 22//9 23//9 25//9 24//9
f 28//10 29//10 31//10 30//10
f 34//11 35//11 37//11 36//11
f 39//12 40//12 42//12 41//12
f 35//1 38//1 37//1
f 23//4 27//4 25//4
f 22//5 24//5 26//5
f 39//6 41//6 43//6
f 28//7 30//7 32//7
f 29//6 33//6 31//6
f 40//7 44//7 42//7
f 45//8 50//8 51//8 46//8
f 50//13 54//13 55//13 51//13
f 49//8 61//8 63//8 52//8
f 54//8 53//8 56//8 55//8
f 52//14 56//14 53//14 49//14
f 54//15 47//15 48//15 53//15
f 49//16 48//16 65//16 61//16
f 60//17 59//17 55//17 56//17
f 51//18 59//18 57//18 46//18
f 63//19 64//19 60//19 52//19
f 63//20 61//20 62//20 64//20
f 45//21 58//21 47//21 50//21
f 46//6 57//6 58//6 45//6
f 58//22 57//22 64//22 65//22
f 66//23 68//23 69//23 67//23
f 72//24 74//24 75//24 73//24
f 78//25 80//25 81//25 79//25
f 83//26 85//26 86//26 84//26
f 79//27 81//27 82//27
f 67//28 69//28 71//28
f 66//29 70//29 68//29
f 83//30 87//30 85//30
f 72//31 76//31 74//31
f 73//32 75//32 77//32
f 84//33 86//33 88//33
f 16//1 15//1 59//1 60//1
f 4//34 9//34 53//34 48//34
f 3//1 4//1 48//1 47//1
f 15//35 11//35 55//35 59//35
f 11//36 7//36 51//36 55//36
f 6//37 10//37 54//37 50//37
f 9//38 5//38 49//38 53//38
f 8//39 12//39 56//39 52//39
f 3//40 6//40 50//40 47//40
f 15//41 13//41 57//41 59//41
f 12//42 16//42 60//42 56//42
f 16//43 8//43 52//43 60//43
f 7//44 15//44 59//44 51//44
f 5//45 4//45 48//45 49//45
f 17//46 18//46 62//46 61//46
f 21//47 17//47 61//47 65//47
f 4//48 21//48 65//48 48//48
f 10//49 3//49 47//49 54//49
f 14//50 3//50 47//50 58//50
f 20//51 16//51 60//51 64//51
f 18//52 20//52 64//52 62//52
f 21//53 14//53 58//53 65//53
f 13//54 20//54 64//54 57//54
f 20//55 21//55 65//55 64//55
f 23//56 22//56 66//56 67//56
f 24//57 25//57 69//57 68//57
f 27//58 23//58 67//58 71//58
f 22//59 26//59 70//59 66//59
f 25//60 27//60 71//60 69//60
f 26//61 24//61 68//61 70//61
f 29//62 28//62 72//62 73//62
f 30//63 31//63 75//63 74//63
f 33//64 29//64 73//64 77//64
f 28//65 32//65 76//65 72//65
f 31//66 33//66 77//66 75//66
f 32//67 30//67 74//67 76//67
f 34//8 36//8 80//8 78//8
f 35//68 34//68 78//68 79//68
f 36//69 37//69 81//69 80//69
f 38//70 35//70 79//70 82//70
f 37//71 38//71 82//71 81//71
f 40//72 39//72 83//72 84//72
f 41//73 42//73 86//73 85//73
f 44//74 40//74 84//74 88//74
f 39//75 43//75 87//75 83//75
f 42//76 44//76 88//76 86//76
f 43//77 41//77 85//77 87//77
