# Blender v2.78 (sub 0) OBJ File: ''
# www.blender.org
mtllib cubev1.mtl
o Plane
v -1.000000 0.000000 1.000000
v 1.000000 0.000000 1.000000
v -1.000000 2.000000 -0.006452
v -1.000000 2.000000 -0.358779
v -1.000000 0.000000 -0.358779
v -1.000000 0.000000 -0.006452
v 1.000000 0.000000 -0.010122
v 1.000000 0.000000 -0.361801
v -1.000000 0.306936 -0.358779
v -1.000000 0.306936 -0.006452
v 1.000000 0.306936 -0.010122
v 1.000000 0.306936 -0.361801
v 1.000000 2.000000 1.000000
v -1.000000 2.000000 1.000000
v 1.000000 2.000000 -0.010122
v 1.000000 2.000000 -0.361801
v -1.000000 0.000000 -1.000000
v -1.000000 2.000000 -1.000000
v 1.000000 0.000000 -1.000000
v 1.000000 2.000000 -1.000000
v -1.000000 2.000000 -1.000000
v -0.197038 0.222761 1.000000
v 0.122000 0.222761 1.000000
v -0.197038 0.000000 0.777863
v 0.122000 0.000000 0.777863
v -0.197038 0.000000 1.000000
v 0.122000 0.000000 1.000000
v -0.998902 0.222761 -0.809178
v -0.998902 0.222761 -0.490140
v -0.776765 0.000000 -0.809178
v -0.776765 0.000000 -0.490140
v -0.998902 0.000000 -0.809178
v -0.998902 0.000000 -0.490140
v -0.988780 0.832436 0.774073
v -0.988780 1.151474 0.774073
v -0.766643 0.832436 0.996834
v -0.766643 1.151474 0.996834
v -0.988780 1.151474 0.996834
v 1.001075 0.222761 0.541330
v 1.001075 0.222761 0.222292
v 0.778937 0.000000 0.541330
v 0.778937 0.000000 0.222292
v 1.001075 0.000000 0.541330
v 1.001075 0.000000 0.222292
vn 0.0000 1.0000 0.0000
vn 0.0018 0.0000 1.0000
vn -0.0015 0.0000 -1.0000
vn 1.0000 0.0000 0.0000
vn -1.0000 0.0000 0.0000
vn 0.0000 0.0000 1.0000
vn 0.0000 0.0000 -1.0000
vn 0.0000 -1.0000 0.0000
vn 0.0000 0.7061 -0.7081
vn 0.7081 0.7061 0.0000
vn 0.7081 0.0000 -0.7061
vn -0.7081 0.7061 0.0000
usemtl Material.001
s off
f 1//1 2//1 7//1 6//1
f 6//2 7//2 11//2 10//2
f 5//1 8//1 19//1 17//1
f 10//1 11//1 12//1 9//1
f 8//3 5//3 9//3 12//3
f 10//4 9//4 4//4 3//4
f 5//4 17//4 21//4 4//4
f 16//5 12//5 11//5 15//5
f 7//5 2//5 13//5 15//5
f 19//5 8//5 16//5 20//5
f 19//6 20//6 18//6 17//6
f 1//4 6//4 3//4 14//4
f 2//7 1//7 14//7 13//7
f 14//8 21//8 20//8 13//8
f 22//9 23//9 25//9 24//9
f 28//10 29//10 31//10 30//10
f 34//11 35//11 37//11 36//11
f 39//12 40//12 42//12 41//12
f 35//1 38//1 37//1
f 23//4 27//4 25//4
f 22//5 24//5 26//5
f 39//6 41//6 43//6
f 28//7 30//7 32//7
f 29//6 33//6 31//6
f 40//7 44//7 42//7
